<?xml version="1.0" encoding="UTF-8"?>
<svg xmlns="http://www.w3.org/2000/svg" xmlns:xlink="http://www.w3.org/1999/xlink" zoomAndPan="magnify" preserveAspectRatio="xMidYMid meet" version="1.0" viewBox="37.5 145.38 297.25 99">
  <defs>
    <g></g>
    <clipPath id="a68c0fae8f">
      <path d="M 37.5 145.382812 L 120.75 145.382812 L 120.75 244.382812 L 37.5 244.382812 Z M 37.5 145.382812 " clip-rule="nonzero"></path>
    </clipPath>
    <clipPath id="5bf1daacae">
      <path d="M 79.390625 145.382812 L 120.640625 145.382812 L 120.640625 244.382812 L 79.390625 244.382812 Z M 79.390625 145.382812 " clip-rule="nonzero"></path>
    </clipPath>
    <clipPath id="d220ecf85d">
      <path d="M 79.390625 155 L 112 155 L 112 234 L 79.390625 234 Z M 79.390625 155 " clip-rule="nonzero"></path>
    </clipPath>
    <clipPath id="c933f5bda8">
      <path d="M 73 173.382812 L 104.546875 173.382812 L 104.546875 202 L 73 202 Z M 73 173.382812 " clip-rule="nonzero"></path>
    </clipPath>
    <clipPath id="6ff237d59d">
      <path d="M 54.296875 173.382812 L 94 173.382812 L 94 216.132812 L 54.296875 216.132812 Z M 54.296875 173.382812 " clip-rule="nonzero"></path>
    </clipPath>
    <clipPath id="15e6ac5503">
      <path d="M 79.445312 173.382812 L 104.195312 173.382812 L 104.195312 202 L 79.445312 202 Z M 79.445312 173.382812 " clip-rule="nonzero"></path>
    </clipPath>
    <clipPath id="ef432f29f3">
      <path d="M 79.445312 173.382812 L 94 173.382812 L 94 216.132812 L 79.445312 216.132812 Z M 79.445312 173.382812 " clip-rule="nonzero"></path>
    </clipPath>
  </defs>
  <g clip-path="url(#a68c0fae8f)">
    <path fill="#000000" d="M 119.84375 159.820312 C 118.613281 158.417969 116.566406 158.785156 114.925781 158.410156 C 103.023438 156.445312 91.839844 151.5625 81.15625 146.09375 C 80.648438 145.851562 80.117188 145.644531 79.585938 145.457031 L 78.8125 145.457031 C 76.957031 146.015625 75.316406 147.078125 73.570312 147.886719 C 64.199219 152.503906 54.375 156.480469 44.042969 158.300781 C 42.558594 158.601562 41.011719 158.578125 39.554688 159.015625 C 38.402344 159.523438 37.554688 160.738281 37.621094 162.023438 C 37.5 169.167969 37.757812 176.320312 38.316406 183.445312 C 39.121094 192.511719 40.421875 201.628906 43.460938 210.242188 C 44.9375 214.238281 46.808594 218.164062 49.636719 221.390625 C 57.34375 230.542969 66.917969 238.046875 77.398438 243.757812 C 77.84375 243.980469 78.308594 244.160156 78.789062 244.304688 L 79.457031 244.304688 C 81.328125 243.777344 82.871094 242.527344 84.578125 241.648438 C 92.699219 236.828125 100.128906 230.824219 106.523438 223.863281 C 108.453125 221.671875 110.441406 219.472656 111.824219 216.878906 C 115.039062 211.144531 116.738281 204.707031 118.007812 198.300781 C 120.191406 186.617188 120.757812 174.6875 120.691406 162.824219 C 120.730469 161.761719 120.648438 160.601562 119.84375 159.820312 Z M 115.324219 195.671875 C 114.015625 202.871094 112.316406 210.199219 108.460938 216.5 C 105.035156 221.472656 100.621094 225.667969 96.101562 229.625 C 90.890625 234.089844 85.160156 237.910156 79.148438 241.203125 C 68.601562 235.460938 58.941406 227.90625 51.316406 218.570312 C 47.390625 213.527344 45.53125 207.253906 44.058594 201.121094 C 41.21875 188.261719 40.546875 175.015625 40.730469 161.875 C 54.339844 160.335938 67.054688 154.71875 79.152344 148.5625 C 91.246094 154.726562 103.980469 160.328125 117.589844 161.871094 C 117.761719 173.167969 117.222656 184.519531 115.324219 195.671875 Z M 115.324219 195.671875 " fill-opacity="1" fill-rule="nonzero"></path>
  </g>
  <path fill="#000000" d="M 46.84375 167.242188 C 47.070312 179.402344 47.765625 191.691406 50.96875 203.476562 C 52.222656 207.820312 53.835938 212.234375 56.925781 215.625 C 63.140625 223.082031 70.851562 229.164062 79.15625 234.117188 C 87.992188 228.847656 96.152344 222.273438 102.570312 214.175781 C 105.609375 209.988281 107.046875 204.90625 108.238281 199.933594 C 110.632812 189.21875 111.277344 178.195312 111.453125 167.246094 C 100.148438 165.054688 89.414062 160.640625 79.152344 155.496094 C 68.882812 160.636719 58.152344 165.0625 46.84375 167.242188 Z M 46.84375 167.242188 " fill-opacity="1" fill-rule="nonzero"></path>
  <g clip-path="url(#5bf1daacae)">
    <path fill="#004aad" d="M 119.960938 159.792969 C 118.726562 158.390625 116.679688 158.757812 115.035156 158.386719 C 103.113281 156.421875 91.914062 151.550781 81.214844 146.09375 C 80.707031 145.851562 80.175781 145.644531 79.644531 145.457031 L 78.871094 145.457031 C 77.015625 146.011719 75.367188 147.074219 73.621094 147.882812 C 64.238281 152.492188 54.398438 156.460938 44.054688 158.277344 C 42.566406 158.578125 41.015625 158.554688 39.558594 158.988281 C 38.402344 159.5 37.554688 160.707031 37.621094 161.992188 C 37.5 169.125 37.757812 176.261719 38.316406 183.371094 C 39.125 192.421875 40.425781 201.519531 43.46875 210.117188 C 44.945312 214.109375 46.824219 218.027344 49.652344 221.246094 C 57.371094 230.382812 66.960938 237.871094 77.453125 243.570312 C 77.902344 243.792969 78.367188 243.976562 78.84375 244.117188 L 79.515625 244.117188 C 81.390625 243.589844 82.933594 242.34375 84.644531 241.464844 C 92.777344 236.652344 100.214844 230.664062 106.621094 223.714844 C 108.554688 221.527344 110.542969 219.332031 111.925781 216.742188 C 115.148438 211.019531 116.847656 204.59375 118.121094 198.199219 C 120.308594 186.539062 120.875 174.632812 120.808594 162.789062 C 120.847656 161.734375 120.765625 160.574219 119.960938 159.792969 Z M 115.433594 195.578125 C 114.125 202.761719 112.421875 210.078125 108.558594 216.367188 C 105.128906 221.328125 100.710938 225.515625 96.1875 229.464844 C 90.96875 233.921875 85.230469 237.734375 79.207031 241.023438 C 68.644531 235.289062 58.972656 227.75 51.335938 218.433594 C 47.402344 213.398438 45.542969 207.136719 44.070312 201.015625 C 41.226562 188.179688 40.550781 174.960938 40.734375 161.84375 C 54.363281 160.308594 67.09375 154.699219 79.210938 148.558594 C 91.324219 154.707031 104.074219 160.300781 117.703125 161.839844 C 117.875 173.117188 117.335938 184.445312 115.433594 195.578125 Z M 115.433594 195.578125 " fill-opacity="1" fill-rule="nonzero"></path>
  </g>
  <g clip-path="url(#d220ecf85d)">
    <path fill="#004aad" d="M 46.855469 167.203125 C 47.082031 179.335938 47.78125 191.605469 50.988281 203.367188 C 52.242188 207.703125 53.859375 212.105469 56.953125 215.492188 C 63.179688 222.9375 70.898438 229.003906 79.214844 233.949219 C 88.0625 228.6875 96.234375 222.125 102.660156 214.042969 C 105.703125 209.867188 107.144531 204.792969 108.335938 199.832031 C 110.734375 189.136719 111.382812 178.132812 111.558594 167.203125 C 100.238281 165.019531 89.488281 160.609375 79.210938 155.476562 C 68.925781 160.609375 58.183594 165.023438 46.855469 167.203125 Z M 46.855469 167.203125 " fill-opacity="1" fill-rule="nonzero"></path>
  </g>
  <g clip-path="url(#c933f5bda8)">
    <path fill="#ff3131" d="M 93.71875 173.382812 L 89.289062 173.382812 C 85.648438 188.003906 73.085938 198.195312 73.085938 198.195312 C 74.9375 200.839844 76.261719 201.632812 76.261719 201.632812 C 80.230469 198.722656 85.523438 191.84375 85.523438 191.84375 C 88.171875 195.28125 96.109375 200.046875 96.109375 200.046875 C 100.871094 193.695312 104.578125 184.167969 104.578125 184.167969 C 95.84375 179.402344 93.71875 173.382812 93.71875 173.382812 Z M 94.785156 193.695312 C 94.785156 193.695312 90.550781 191.3125 87.90625 188.136719 C 87.90625 188.136719 91.347656 181.785156 91.875 179.140625 C 91.875 179.140625 95.578125 183.902344 99.019531 186.019531 C 99.019531 186.019531 96.109375 192.371094 94.785156 193.695312 Z M 94.785156 193.695312 " fill-opacity="1" fill-rule="nonzero"></path>
  </g>
  <g clip-path="url(#6ff237d59d)">
    <path fill="#ff3131" d="M 93.464844 203.222656 C 90.023438 208.515625 79.703125 216.1875 79.703125 216.1875 C 60.910156 203.488281 54.296875 184.167969 54.296875 184.167969 C 61.707031 180.199219 65.148438 173.582031 65.148438 173.582031 L 69.910156 173.582031 C 70.96875 179.667969 76.527344 188.402344 76.527344 188.402344 C 75.996094 189.992188 73.613281 191.84375 73.613281 191.84375 C 70.96875 189.195312 66.734375 179.140625 66.734375 179.140625 C 64.882812 182.582031 60.117188 185.753906 60.117188 185.753906 C 64.882812 199.515625 79.4375 210.367188 79.4375 210.367188 C 82.878906 207.984375 86.316406 204.28125 86.316406 204.28125 C 84.996094 203.75 82.878906 201.632812 82.878906 201.632812 C 84.464844 200.308594 85.789062 198.191406 85.789062 198.191406 C 87.90625 200.574219 93.464844 203.222656 93.464844 203.222656 Z M 93.464844 203.222656 " fill-opacity="1" fill-rule="nonzero"></path>
  </g>
  <g fill="#000000" fill-opacity="1">
    <g transform="translate(129.868092, 201.827577)">
      <g>
        <path d="M 10.25 -23.65625 C 11.507812 -23.65625 12.738281 -23.46875 13.9375 -23.09375 C 15.132812 -22.726562 16.023438 -22.367188 16.609375 -22.015625 L 17.453125 -21.453125 L 15.3125 -17.234375 C 15.144531 -17.347656 14.910156 -17.492188 14.609375 -17.671875 C 14.304688 -17.847656 13.742188 -18.085938 12.921875 -18.390625 C 12.097656 -18.691406 11.328125 -18.84375 10.609375 -18.84375 C 9.734375 -18.84375 9.054688 -18.648438 8.578125 -18.265625 C 8.097656 -17.890625 7.859375 -17.382812 7.859375 -16.75 C 7.859375 -16.4375 7.96875 -16.140625 8.1875 -15.859375 C 8.414062 -15.585938 8.800781 -15.296875 9.34375 -14.984375 C 9.894531 -14.679688 10.375 -14.4375 10.78125 -14.25 C 11.195312 -14.0625 11.835938 -13.78125 12.703125 -13.40625 C 14.203125 -12.757812 15.476562 -11.890625 16.53125 -10.796875 C 17.59375 -9.703125 18.125 -8.457031 18.125 -7.0625 C 18.125 -5.726562 17.882812 -4.5625 17.40625 -3.5625 C 16.9375 -2.570312 16.28125 -1.796875 15.4375 -1.234375 C 14.601562 -0.671875 13.679688 -0.253906 12.671875 0.015625 C 11.660156 0.285156 10.5625 0.421875 9.375 0.421875 C 8.363281 0.421875 7.367188 0.316406 6.390625 0.109375 C 5.410156 -0.0976562 4.59375 -0.351562 3.9375 -0.65625 C 3.28125 -0.96875 2.6875 -1.273438 2.15625 -1.578125 C 1.632812 -1.878906 1.253906 -2.132812 1.015625 -2.34375 L 0.640625 -2.640625 L 3.296875 -7.09375 C 3.515625 -6.90625 3.820312 -6.664062 4.21875 -6.375 C 4.613281 -6.082031 5.3125 -5.691406 6.3125 -5.203125 C 7.320312 -4.722656 8.210938 -4.484375 8.984375 -4.484375 C 11.210938 -4.484375 12.328125 -5.238281 12.328125 -6.75 C 12.328125 -7.070312 12.25 -7.367188 12.09375 -7.640625 C 11.9375 -7.910156 11.65625 -8.179688 11.25 -8.453125 C 10.84375 -8.734375 10.484375 -8.953125 10.171875 -9.109375 C 9.867188 -9.265625 9.363281 -9.503906 8.65625 -9.828125 C 7.957031 -10.160156 7.4375 -10.414062 7.09375 -10.59375 C 5.6875 -11.28125 4.597656 -12.144531 3.828125 -13.1875 C 3.054688 -14.226562 2.671875 -15.351562 2.671875 -16.5625 C 2.671875 -18.644531 3.441406 -20.347656 4.984375 -21.671875 C 6.523438 -22.992188 8.28125 -23.65625 10.25 -23.65625 Z M 10.25 -23.65625 "></path>
      </g>
    </g>
  </g>
  <g fill="#000000" fill-opacity="1">
    <g transform="translate(148.787311, 201.827577)">
      <g>
        <path d="M 3.046875 -1.71875 C 1.441406 -3.144531 0.640625 -4.972656 0.640625 -7.203125 C 0.640625 -9.441406 1.472656 -11.273438 3.140625 -12.703125 C 4.816406 -14.140625 6.882812 -14.859375 9.34375 -14.859375 C 11.769531 -14.859375 13.8125 -14.132812 15.46875 -12.6875 C 17.132812 -11.25 17.96875 -9.421875 17.96875 -7.203125 C 17.96875 -4.992188 17.15625 -3.171875 15.53125 -1.734375 C 13.90625 -0.296875 11.84375 0.421875 9.34375 0.421875 C 6.757812 0.421875 4.660156 -0.289062 3.046875 -1.71875 Z M 6.90625 -9.65625 C 6.257812 -9.019531 5.9375 -8.203125 5.9375 -7.203125 C 5.9375 -6.210938 6.242188 -5.398438 6.859375 -4.765625 C 7.484375 -4.140625 8.300781 -3.828125 9.3125 -3.828125 C 10.289062 -3.828125 11.09375 -4.144531 11.71875 -4.78125 C 12.351562 -5.425781 12.671875 -6.234375 12.671875 -7.203125 C 12.671875 -8.203125 12.347656 -9.019531 11.703125 -9.65625 C 11.054688 -10.289062 10.257812 -10.609375 9.3125 -10.609375 C 8.363281 -10.609375 7.5625 -10.289062 6.90625 -9.65625 Z M 6.90625 -9.65625 "></path>
      </g>
    </g>
  </g>
  <g fill="#000000" fill-opacity="1">
    <g transform="translate(167.396837, 201.827577)">
      <g>
        <path d="M 1.6875 0 L 1.6875 -24.21875 L 6.671875 -24.21875 L 6.671875 0 Z M 1.6875 0 "></path>
      </g>
    </g>
  </g>
  <g fill="#000000" fill-opacity="1">
    <g transform="translate(175.758451, 201.827577)">
      <g>
        <path d="M 3.046875 -1.71875 C 1.441406 -3.144531 0.640625 -4.972656 0.640625 -7.203125 C 0.640625 -9.441406 1.472656 -11.273438 3.140625 -12.703125 C 4.816406 -14.140625 6.882812 -14.859375 9.34375 -14.859375 C 11.769531 -14.859375 13.8125 -14.132812 15.46875 -12.6875 C 17.132812 -11.25 17.96875 -9.421875 17.96875 -7.203125 C 17.96875 -4.992188 17.15625 -3.171875 15.53125 -1.734375 C 13.90625 -0.296875 11.84375 0.421875 9.34375 0.421875 C 6.757812 0.421875 4.660156 -0.289062 3.046875 -1.71875 Z M 6.90625 -9.65625 C 6.257812 -9.019531 5.9375 -8.203125 5.9375 -7.203125 C 5.9375 -6.210938 6.242188 -5.398438 6.859375 -4.765625 C 7.484375 -4.140625 8.300781 -3.828125 9.3125 -3.828125 C 10.289062 -3.828125 11.09375 -4.144531 11.71875 -4.78125 C 12.351562 -5.425781 12.671875 -6.234375 12.671875 -7.203125 C 12.671875 -8.203125 12.347656 -9.019531 11.703125 -9.65625 C 11.054688 -10.289062 10.257812 -10.609375 9.3125 -10.609375 C 8.363281 -10.609375 7.5625 -10.289062 6.90625 -9.65625 Z M 6.90625 -9.65625 "></path>
      </g>
    </g>
  </g>
  <g fill="#ff3131" fill-opacity="1">
    <g transform="translate(194.372013, 201.827577)">
      <g>
        <path d="M 10.25 -23.65625 C 11.507812 -23.65625 12.738281 -23.46875 13.9375 -23.09375 C 15.132812 -22.726562 16.023438 -22.367188 16.609375 -22.015625 L 17.453125 -21.453125 L 15.3125 -17.234375 C 15.144531 -17.347656 14.910156 -17.492188 14.609375 -17.671875 C 14.304688 -17.847656 13.742188 -18.085938 12.921875 -18.390625 C 12.097656 -18.691406 11.328125 -18.84375 10.609375 -18.84375 C 9.734375 -18.84375 9.054688 -18.648438 8.578125 -18.265625 C 8.097656 -17.890625 7.859375 -17.382812 7.859375 -16.75 C 7.859375 -16.4375 7.96875 -16.140625 8.1875 -15.859375 C 8.414062 -15.585938 8.800781 -15.296875 9.34375 -14.984375 C 9.894531 -14.679688 10.375 -14.4375 10.78125 -14.25 C 11.195312 -14.0625 11.835938 -13.78125 12.703125 -13.40625 C 14.203125 -12.757812 15.476562 -11.890625 16.53125 -10.796875 C 17.59375 -9.703125 18.125 -8.457031 18.125 -7.0625 C 18.125 -5.726562 17.882812 -4.5625 17.40625 -3.5625 C 16.9375 -2.570312 16.28125 -1.796875 15.4375 -1.234375 C 14.601562 -0.671875 13.679688 -0.253906 12.671875 0.015625 C 11.660156 0.285156 10.5625 0.421875 9.375 0.421875 C 8.363281 0.421875 7.367188 0.316406 6.390625 0.109375 C 5.410156 -0.0976562 4.59375 -0.351562 3.9375 -0.65625 C 3.28125 -0.96875 2.6875 -1.273438 2.15625 -1.578125 C 1.632812 -1.878906 1.253906 -2.132812 1.015625 -2.34375 L 0.640625 -2.640625 L 3.296875 -7.09375 C 3.515625 -6.90625 3.820312 -6.664062 4.21875 -6.375 C 4.613281 -6.082031 5.3125 -5.691406 6.3125 -5.203125 C 7.320312 -4.722656 8.210938 -4.484375 8.984375 -4.484375 C 11.210938 -4.484375 12.328125 -5.238281 12.328125 -6.75 C 12.328125 -7.070312 12.25 -7.367188 12.09375 -7.640625 C 11.9375 -7.910156 11.65625 -8.179688 11.25 -8.453125 C 10.84375 -8.734375 10.484375 -8.953125 10.171875 -9.109375 C 9.867188 -9.265625 9.363281 -9.503906 8.65625 -9.828125 C 7.957031 -10.160156 7.4375 -10.414062 7.09375 -10.59375 C 5.6875 -11.28125 4.597656 -12.144531 3.828125 -13.1875 C 3.054688 -14.226562 2.671875 -15.351562 2.671875 -16.5625 C 2.671875 -18.644531 3.441406 -20.347656 4.984375 -21.671875 C 6.523438 -22.992188 8.28125 -23.65625 10.25 -23.65625 Z M 10.25 -23.65625 "></path>
      </g>
    </g>
  </g>
  <g fill="#ff3131" fill-opacity="1">
    <g transform="translate(213.291232, 201.827577)">
      <g>
        <path d="M 16.296875 -6.53125 L 5.828125 -6.53125 C 5.828125 -5.519531 6.15625 -4.769531 6.8125 -4.28125 C 7.46875 -3.789062 8.179688 -3.546875 8.953125 -3.546875 C 9.765625 -3.546875 10.40625 -3.648438 10.875 -3.859375 C 11.34375 -4.078125 11.875 -4.507812 12.46875 -5.15625 L 16.078125 -3.34375 C 14.578125 -0.832031 12.082031 0.421875 8.59375 0.421875 C 6.414062 0.421875 4.546875 -0.320312 2.984375 -1.8125 C 1.421875 -3.300781 0.640625 -5.097656 0.640625 -7.203125 C 0.640625 -9.304688 1.421875 -11.109375 2.984375 -12.609375 C 4.546875 -14.109375 6.414062 -14.859375 8.59375 -14.859375 C 10.875 -14.859375 12.734375 -14.195312 14.171875 -12.875 C 15.609375 -11.550781 16.328125 -9.660156 16.328125 -7.203125 C 16.328125 -6.867188 16.316406 -6.644531 16.296875 -6.53125 Z M 5.96875 -9.296875 L 11.453125 -9.296875 C 11.347656 -10.046875 11.054688 -10.617188 10.578125 -11.015625 C 10.097656 -11.421875 9.484375 -11.625 8.734375 -11.625 C 7.898438 -11.625 7.238281 -11.40625 6.75 -10.96875 C 6.269531 -10.539062 6.007812 -9.984375 5.96875 -9.296875 Z M 5.96875 -9.296875 "></path>
      </g>
    </g>
  </g>
  <g fill="#ff3131" fill-opacity="1">
    <g transform="translate(230.26785, 201.827577)">
      <g>
        <path d="M 9.375 -10.78125 C 8.4375 -10.78125 7.628906 -10.429688 6.953125 -9.734375 C 6.273438 -9.046875 5.9375 -8.210938 5.9375 -7.234375 C 5.9375 -6.242188 6.273438 -5.398438 6.953125 -4.703125 C 7.628906 -4.003906 8.4375 -3.65625 9.375 -3.65625 C 9.820312 -3.65625 10.25 -3.710938 10.65625 -3.828125 C 11.0625 -3.941406 11.359375 -4.054688 11.546875 -4.171875 L 11.796875 -4.34375 L 13.484375 -0.875 C 13.359375 -0.78125 13.175781 -0.660156 12.9375 -0.515625 C 12.695312 -0.378906 12.160156 -0.191406 11.328125 0.046875 C 10.492188 0.296875 9.597656 0.421875 8.640625 0.421875 C 6.523438 0.421875 4.660156 -0.320312 3.046875 -1.8125 C 1.441406 -3.300781 0.640625 -5.09375 0.640625 -7.1875 C 0.640625 -9.28125 1.441406 -11.082031 3.046875 -12.59375 C 4.660156 -14.101562 6.523438 -14.859375 8.640625 -14.859375 C 9.597656 -14.859375 10.476562 -14.742188 11.28125 -14.515625 C 12.09375 -14.296875 12.671875 -14.078125 13.015625 -13.859375 L 13.484375 -13.515625 L 11.796875 -10.109375 C 11.179688 -10.554688 10.375 -10.78125 9.375 -10.78125 Z M 9.375 -10.78125 "></path>
      </g>
    </g>
  </g>
  <g fill="#ff3131" fill-opacity="1">
    <g transform="translate(244.091271, 201.827577)">
      <g>
        <path d="M 6.390625 -14.4375 L 6.390625 -7.578125 C 6.390625 -6.148438 6.601562 -5.132812 7.03125 -4.53125 C 7.46875 -3.925781 8.203125 -3.625 9.234375 -3.625 C 10.265625 -3.625 10.992188 -3.925781 11.421875 -4.53125 C 11.859375 -5.132812 12.078125 -6.148438 12.078125 -7.578125 L 12.078125 -14.4375 L 17.0625 -14.4375 L 17.0625 -6.359375 C 17.0625 -3.960938 16.4375 -2.234375 15.1875 -1.171875 C 13.9375 -0.109375 11.953125 0.421875 9.234375 0.421875 C 6.515625 0.421875 4.53125 -0.109375 3.28125 -1.171875 C 2.03125 -2.234375 1.40625 -3.960938 1.40625 -6.359375 L 1.40625 -14.4375 Z M 6.390625 -14.4375 "></path>
      </g>
    </g>
  </g>
  <g fill="#ff3131" fill-opacity="1">
    <g transform="translate(262.560039, 201.827577)">
      <g>
        <path d="M 1.6875 0 L 1.6875 -14.4375 L 6.671875 -14.4375 L 6.671875 -12.359375 L 6.734375 -12.359375 C 6.765625 -12.429688 6.820312 -12.523438 6.90625 -12.640625 C 7 -12.753906 7.1875 -12.953125 7.46875 -13.234375 C 7.75 -13.515625 8.046875 -13.765625 8.359375 -13.984375 C 8.679688 -14.210938 9.09375 -14.414062 9.59375 -14.59375 C 10.101562 -14.769531 10.625 -14.859375 11.15625 -14.859375 C 11.695312 -14.859375 12.226562 -14.785156 12.75 -14.640625 C 13.28125 -14.492188 13.664062 -14.34375 13.90625 -14.1875 L 14.296875 -13.96875 L 12.21875 -9.734375 C 11.601562 -10.265625 10.738281 -10.53125 9.625 -10.53125 C 9.03125 -10.53125 8.515625 -10.394531 8.078125 -10.125 C 7.648438 -9.863281 7.34375 -9.546875 7.15625 -9.171875 C 6.976562 -8.796875 6.851562 -8.476562 6.78125 -8.21875 C 6.707031 -7.957031 6.671875 -7.753906 6.671875 -7.609375 L 6.671875 0 Z M 1.6875 0 "></path>
      </g>
    </g>
  </g>
  <g fill="#ff3131" fill-opacity="1">
    <g transform="translate(276.580534, 201.827577)">
      <g>
        <path d="M 2.171875 -22.5 C 2.753906 -23.082031 3.445312 -23.375 4.25 -23.375 C 5.0625 -23.375 5.753906 -23.082031 6.328125 -22.5 C 6.910156 -21.914062 7.203125 -21.21875 7.203125 -20.40625 C 7.203125 -19.601562 6.910156 -18.910156 6.328125 -18.328125 C 5.753906 -17.742188 5.0625 -17.453125 4.25 -17.453125 C 3.445312 -17.453125 2.753906 -17.742188 2.171875 -18.328125 C 1.585938 -18.910156 1.296875 -19.601562 1.296875 -20.40625 C 1.296875 -21.21875 1.585938 -21.914062 2.171875 -22.5 Z M 1.6875 -14.4375 L 1.6875 0 L 6.671875 0 L 6.671875 -14.4375 Z M 1.6875 -14.4375 "></path>
      </g>
    </g>
  </g>
  <g fill="#ff3131" fill-opacity="1">
    <g transform="translate(285.082919, 201.827577)">
      <g>
        <path d="M 2.53125 -14.4375 L 2.53125 -19.828125 L 7.515625 -19.828125 L 7.515625 -14.4375 L 10.5625 -14.4375 L 10.5625 -10.640625 L 7.515625 -10.640625 L 7.515625 -6.046875 C 7.515625 -4.710938 7.890625 -4.046875 8.640625 -4.046875 C 8.828125 -4.046875 9.023438 -4.082031 9.234375 -4.15625 C 9.441406 -4.238281 9.601562 -4.316406 9.71875 -4.390625 L 9.890625 -4.5 L 11.125 -0.484375 C 10.050781 0.117188 8.832031 0.421875 7.46875 0.421875 C 6.519531 0.421875 5.707031 0.257812 5.03125 -0.0625 C 4.363281 -0.394531 3.851562 -0.835938 3.5 -1.390625 C 3.15625 -1.941406 2.90625 -2.519531 2.75 -3.125 C 2.601562 -3.738281 2.53125 -4.394531 2.53125 -5.09375 L 2.53125 -10.640625 L 0.453125 -10.640625 L 0.453125 -14.4375 Z M 2.53125 -14.4375 "></path>
      </g>
    </g>
  </g>
  <g fill="#ff3131" fill-opacity="1">
    <g transform="translate(296.203594, 201.827577)">
      <g>
        <path d="M 2.171875 -22.5 C 2.753906 -23.082031 3.445312 -23.375 4.25 -23.375 C 5.0625 -23.375 5.753906 -23.082031 6.328125 -22.5 C 6.910156 -21.914062 7.203125 -21.21875 7.203125 -20.40625 C 7.203125 -19.601562 6.910156 -18.910156 6.328125 -18.328125 C 5.753906 -17.742188 5.0625 -17.453125 4.25 -17.453125 C 3.445312 -17.453125 2.753906 -17.742188 2.171875 -18.328125 C 1.585938 -18.910156 1.296875 -19.601562 1.296875 -20.40625 C 1.296875 -21.21875 1.585938 -21.914062 2.171875 -22.5 Z M 1.6875 -14.4375 L 1.6875 0 L 6.671875 0 L 6.671875 -14.4375 Z M 1.6875 -14.4375 "></path>
      </g>
    </g>
  </g>
  <g fill="#ff3131" fill-opacity="1">
    <g transform="translate(304.705979, 201.827577)">
      <g>
        <path d="M 16.296875 -6.53125 L 5.828125 -6.53125 C 5.828125 -5.519531 6.15625 -4.769531 6.8125 -4.28125 C 7.46875 -3.789062 8.179688 -3.546875 8.953125 -3.546875 C 9.765625 -3.546875 10.40625 -3.648438 10.875 -3.859375 C 11.34375 -4.078125 11.875 -4.507812 12.46875 -5.15625 L 16.078125 -3.34375 C 14.578125 -0.832031 12.082031 0.421875 8.59375 0.421875 C 6.414062 0.421875 4.546875 -0.320312 2.984375 -1.8125 C 1.421875 -3.300781 0.640625 -5.097656 0.640625 -7.203125 C 0.640625 -9.304688 1.421875 -11.109375 2.984375 -12.609375 C 4.546875 -14.109375 6.414062 -14.859375 8.59375 -14.859375 C 10.875 -14.859375 12.734375 -14.195312 14.171875 -12.875 C 15.609375 -11.550781 16.328125 -9.660156 16.328125 -7.203125 C 16.328125 -6.867188 16.316406 -6.644531 16.296875 -6.53125 Z M 5.96875 -9.296875 L 11.453125 -9.296875 C 11.347656 -10.046875 11.054688 -10.617188 10.578125 -11.015625 C 10.097656 -11.421875 9.484375 -11.625 8.734375 -11.625 C 7.898438 -11.625 7.238281 -11.40625 6.75 -10.96875 C 6.269531 -10.539062 6.007812 -9.984375 5.96875 -9.296875 Z M 5.96875 -9.296875 "></path>
      </g>
    </g>
  </g>
  <g fill="#ff3131" fill-opacity="1">
    <g transform="translate(321.682597, 201.827577)">
      <g>
        <path d="M 7.96875 -14.859375 C 8.789062 -14.859375 9.601562 -14.765625 10.40625 -14.578125 C 11.21875 -14.390625 11.820312 -14.203125 12.21875 -14.015625 L 12.8125 -13.734375 L 11.171875 -10.46875 C 10.046875 -11.070312 8.976562 -11.375 7.96875 -11.375 C 7.40625 -11.375 7.003906 -11.3125 6.765625 -11.1875 C 6.535156 -11.070312 6.421875 -10.84375 6.421875 -10.5 C 6.421875 -10.425781 6.425781 -10.351562 6.4375 -10.28125 C 6.457031 -10.207031 6.492188 -10.132812 6.546875 -10.0625 C 6.609375 -10 6.660156 -9.941406 6.703125 -9.890625 C 6.753906 -9.847656 6.835938 -9.796875 6.953125 -9.734375 C 7.066406 -9.679688 7.15625 -9.640625 7.21875 -9.609375 C 7.289062 -9.585938 7.398438 -9.546875 7.546875 -9.484375 C 7.691406 -9.429688 7.800781 -9.390625 7.875 -9.359375 C 7.957031 -9.328125 8.085938 -9.285156 8.265625 -9.234375 C 8.441406 -9.179688 8.578125 -9.144531 8.671875 -9.125 C 9.253906 -8.957031 9.757812 -8.769531 10.1875 -8.5625 C 10.625 -8.351562 11.082031 -8.070312 11.5625 -7.71875 C 12.039062 -7.363281 12.410156 -6.910156 12.671875 -6.359375 C 12.929688 -5.816406 13.0625 -5.195312 13.0625 -4.5 C 13.0625 -1.21875 10.78125 0.421875 6.21875 0.421875 C 5.1875 0.421875 4.207031 0.265625 3.28125 -0.046875 C 2.351562 -0.367188 1.679688 -0.691406 1.265625 -1.015625 L 0.640625 -1.515625 L 2.671875 -4.921875 C 2.828125 -4.796875 3.023438 -4.640625 3.265625 -4.453125 C 3.503906 -4.273438 3.941406 -4.03125 4.578125 -3.71875 C 5.222656 -3.414062 5.78125 -3.265625 6.25 -3.265625 C 7.28125 -3.265625 7.796875 -3.613281 7.796875 -4.3125 C 7.796875 -4.625 7.664062 -4.867188 7.40625 -5.046875 C 7.144531 -5.234375 6.695312 -5.4375 6.0625 -5.65625 C 5.4375 -5.882812 4.945312 -6.09375 4.59375 -6.28125 C 3.6875 -6.75 2.96875 -7.273438 2.4375 -7.859375 C 1.914062 -8.453125 1.65625 -9.238281 1.65625 -10.21875 C 1.65625 -11.6875 2.222656 -12.828125 3.359375 -13.640625 C 4.492188 -14.453125 6.03125 -14.859375 7.96875 -14.859375 Z M 7.96875 -14.859375 "></path>
      </g>
    </g>
  </g>
  <g clip-path="url(#15e6ac5503)">
    <path fill="#ff3131" d="M 93.664062 173.382812 L 89.238281 173.382812 C 85.597656 188.003906 73.035156 198.195312 73.035156 198.195312 C 74.886719 200.839844 76.210938 201.632812 76.210938 201.632812 C 80.179688 198.722656 85.472656 191.84375 85.472656 191.84375 C 88.117188 195.28125 96.058594 200.046875 96.058594 200.046875 C 100.820312 193.695312 104.527344 184.167969 104.527344 184.167969 C 95.792969 179.402344 93.664062 173.382812 93.664062 173.382812 Z M 94.734375 193.695312 C 94.734375 193.695312 90.5 191.3125 87.855469 188.136719 C 87.855469 188.136719 91.292969 181.785156 91.824219 179.140625 C 91.824219 179.140625 95.527344 183.902344 98.96875 186.019531 C 98.96875 186.019531 96.058594 192.371094 94.734375 193.695312 Z M 94.734375 193.695312 " fill-opacity="1" fill-rule="nonzero"></path>
  </g>
  <g clip-path="url(#ef432f29f3)">
    <path fill="#ff3131" d="M 93.410156 203.222656 C 89.972656 208.515625 79.648438 216.1875 79.648438 216.1875 C 60.859375 203.488281 54.246094 184.167969 54.246094 184.167969 C 61.65625 180.199219 65.09375 173.582031 65.09375 173.582031 L 69.859375 173.582031 C 70.917969 179.667969 76.472656 188.402344 76.472656 188.402344 C 75.945312 189.992188 73.5625 191.84375 73.5625 191.84375 C 70.914062 189.195312 66.683594 179.140625 66.683594 179.140625 C 64.828125 182.582031 60.066406 185.753906 60.066406 185.753906 C 64.828125 199.515625 79.386719 210.367188 79.386719 210.367188 C 82.824219 207.984375 86.265625 204.28125 86.265625 204.28125 C 84.941406 203.75 82.824219 201.632812 82.824219 201.632812 C 84.414062 200.308594 85.734375 198.191406 85.734375 198.191406 C 87.855469 200.574219 93.410156 203.222656 93.410156 203.222656 Z M 93.410156 203.222656 " fill-opacity="1" fill-rule="nonzero"></path>
  </g>
  <g fill="#000000" fill-opacity="1">
    <g transform="translate(166.058211, 222.129374)">
      <g>
        <path d="M 4.546875 -2.796875 L 4.546875 0 L 3.140625 0 L 3.140625 -2.75 L 0.015625 -8.40625 L 1.4375 -8.40625 L 3.84375 -4.3125 L 6.1875 -8.40625 L 7.625 -8.40625 Z M 4.546875 -2.796875 "></path>
      </g>
    </g>
  </g>
  <g fill="#000000" fill-opacity="1">
    <g transform="translate(174.194226, 222.129374)">
      <g>
        <path d="M 3.75 -6.4375 C 4.738281 -6.4375 5.539062 -6.132812 6.15625 -5.53125 C 6.769531 -4.9375 7.078125 -4.15625 7.078125 -3.1875 C 7.078125 -2.226562 6.769531 -1.445312 6.15625 -0.84375 C 5.539062 -0.25 4.738281 0.046875 3.75 0.046875 C 2.757812 0.046875 1.957031 -0.25 1.34375 -0.84375 C 0.726562 -1.445312 0.421875 -2.226562 0.421875 -3.1875 C 0.421875 -4.15625 0.726562 -4.9375 1.34375 -5.53125 C 1.957031 -6.132812 2.757812 -6.4375 3.75 -6.4375 Z M 3.75 -5.25 C 3.175781 -5.25 2.707031 -5.054688 2.34375 -4.671875 C 1.976562 -4.285156 1.796875 -3.789062 1.796875 -3.1875 C 1.796875 -2.5625 1.976562 -2.054688 2.34375 -1.671875 C 2.707031 -1.296875 3.175781 -1.109375 3.75 -1.109375 C 4.332031 -1.109375 4.800781 -1.296875 5.15625 -1.671875 C 5.519531 -2.054688 5.703125 -2.5625 5.703125 -3.1875 C 5.703125 -3.789062 5.519531 -4.285156 5.15625 -4.671875 C 4.789062 -5.054688 4.320312 -5.25 3.75 -5.25 Z M 3.75 -5.25 "></path>
      </g>
    </g>
  </g>
  <g fill="#000000" fill-opacity="1">
    <g transform="translate(182.18624, 222.129374)">
      <g>
        <path d="M 6.8125 -6.390625 L 6.8125 0 L 5.4375 0 L 5.4375 -1.25 C 5.019531 -0.394531 4.257812 0.0351562 3.15625 0.046875 C 2.425781 0.046875 1.851562 -0.171875 1.4375 -0.609375 C 1.019531 -1.046875 0.8125 -1.644531 0.8125 -2.40625 L 0.8125 -6.390625 L 2.203125 -6.390625 L 2.203125 -2.796875 C 2.203125 -2.316406 2.332031 -1.9375 2.59375 -1.65625 C 2.851562 -1.382812 3.21875 -1.25 3.6875 -1.25 C 4.21875 -1.257812 4.640625 -1.445312 4.953125 -1.8125 C 5.273438 -2.1875 5.4375 -2.660156 5.4375 -3.234375 L 5.4375 -6.390625 Z M 6.8125 -6.390625 "></path>
      </g>
    </g>
  </g>
  <g fill="#000000" fill-opacity="1">
    <g transform="translate(190.514262, 222.129374)">
      <g>
        <path d="M 2.40625 -6.390625 L 2.40625 -5.109375 C 2.84375 -5.992188 3.578125 -6.4375 4.609375 -6.4375 L 4.609375 -5.109375 C 3.972656 -5.140625 3.457031 -4.988281 3.0625 -4.65625 C 2.675781 -4.332031 2.457031 -3.894531 2.40625 -3.34375 L 2.40625 0 L 1.015625 0 L 1.015625 -6.390625 Z M 2.40625 -6.390625 "></path>
      </g>
    </g>
  </g>
  <g fill="#000000" fill-opacity="1">
    <g transform="translate(195.734279, 222.129374)">
      <g></g>
    </g>
  </g>
  <g fill="#000000" fill-opacity="1">
    <g transform="translate(199.322287, 222.129374)">
      <g>
        <path d="M 1.109375 -8.40625 L 4.546875 -8.40625 C 5.804688 -8.40625 6.84375 -8.007812 7.65625 -7.21875 C 8.476562 -6.425781 8.890625 -5.421875 8.890625 -4.203125 C 8.890625 -2.984375 8.476562 -1.976562 7.65625 -1.1875 C 6.832031 -0.394531 5.785156 0 4.515625 0 L 1.109375 0 Z M 2.515625 -7.125 L 2.515625 -1.265625 L 4.578125 -1.265625 C 5.398438 -1.265625 6.085938 -1.539062 6.640625 -2.09375 C 7.191406 -2.644531 7.46875 -3.34375 7.46875 -4.1875 C 7.46875 -5.03125 7.179688 -5.726562 6.609375 -6.28125 C 6.046875 -6.84375 5.351562 -7.125 4.53125 -7.125 Z M 2.515625 -7.125 "></path>
      </g>
    </g>
  </g>
  <g fill="#000000" fill-opacity="1">
    <g transform="translate(209.114309, 222.129374)">
      <g>
        <path d="M 1.125 -8.8125 C 1.28125 -8.96875 1.472656 -9.046875 1.703125 -9.046875 C 1.929688 -9.046875 2.125 -8.96875 2.28125 -8.8125 C 2.4375 -8.65625 2.515625 -8.453125 2.515625 -8.203125 C 2.515625 -7.960938 2.4375 -7.765625 2.28125 -7.609375 C 2.125 -7.453125 1.929688 -7.375 1.703125 -7.375 C 1.472656 -7.375 1.28125 -7.453125 1.125 -7.609375 C 0.976562 -7.765625 0.90625 -7.960938 0.90625 -8.203125 C 0.90625 -8.453125 0.976562 -8.65625 1.125 -8.8125 Z M 2.390625 0 L 1.015625 0 L 1.015625 -6.390625 L 2.390625 -6.390625 Z M 2.390625 0 "></path>
      </g>
    </g>
  </g>
  <g fill="#000000" fill-opacity="1">
    <g transform="translate(213.014318, 222.129374)">
      <g>
        <path d="M 6.78125 -6.390625 L 6.78125 -0.625 C 6.78125 0.289062 6.476562 1.015625 5.875 1.546875 C 5.28125 2.085938 4.476562 2.359375 3.46875 2.359375 C 2.519531 2.359375 1.632812 2.082031 0.8125 1.53125 L 1.40625 0.53125 C 2.03125 0.988281 2.695312 1.21875 3.40625 1.21875 C 4.007812 1.21875 4.492188 1.050781 4.859375 0.71875 C 5.222656 0.394531 5.40625 -0.0390625 5.40625 -0.59375 L 5.40625 -1.390625 C 4.957031 -0.671875 4.253906 -0.3125 3.296875 -0.3125 C 2.429688 -0.3125 1.734375 -0.59375 1.203125 -1.15625 C 0.679688 -1.726562 0.421875 -2.472656 0.421875 -3.390625 C 0.421875 -4.296875 0.679688 -5.023438 1.203125 -5.578125 C 1.722656 -6.140625 2.40625 -6.425781 3.25 -6.4375 C 4.226562 -6.4375 4.945312 -6.078125 5.40625 -5.359375 L 5.40625 -6.390625 Z M 3.578125 -1.390625 C 4.109375 -1.390625 4.546875 -1.570312 4.890625 -1.9375 C 5.234375 -2.3125 5.40625 -2.785156 5.40625 -3.359375 C 5.40625 -3.929688 5.234375 -4.398438 4.890625 -4.765625 C 4.554688 -5.128906 4.117188 -5.3125 3.578125 -5.3125 C 3.035156 -5.3125 2.59375 -5.128906 2.25 -4.765625 C 1.90625 -4.398438 1.726562 -3.929688 1.71875 -3.359375 C 1.726562 -2.785156 1.898438 -2.3125 2.234375 -1.9375 C 2.578125 -1.570312 3.023438 -1.390625 3.578125 -1.390625 Z M 3.578125 -1.390625 "></path>
      </g>
    </g>
  </g>
  <g fill="#000000" fill-opacity="1">
    <g transform="translate(221.186338, 222.129374)">
      <g>
        <path d="M 1.125 -8.8125 C 1.28125 -8.96875 1.472656 -9.046875 1.703125 -9.046875 C 1.929688 -9.046875 2.125 -8.96875 2.28125 -8.8125 C 2.4375 -8.65625 2.515625 -8.453125 2.515625 -8.203125 C 2.515625 -7.960938 2.4375 -7.765625 2.28125 -7.609375 C 2.125 -7.453125 1.929688 -7.375 1.703125 -7.375 C 1.472656 -7.375 1.28125 -7.453125 1.125 -7.609375 C 0.976562 -7.765625 0.90625 -7.960938 0.90625 -8.203125 C 0.90625 -8.453125 0.976562 -8.65625 1.125 -8.8125 Z M 2.390625 0 L 1.015625 0 L 1.015625 -6.390625 L 2.390625 -6.390625 Z M 2.390625 0 "></path>
      </g>
    </g>
  </g>
  <g fill="#000000" fill-opacity="1">
    <g transform="translate(225.086346, 222.129374)">
      <g>
        <path d="M 4.28125 -1.46875 L 4.625 -0.40625 C 4.101562 -0.09375 3.582031 0.0625 3.0625 0.0625 C 2.539062 0.0625 2.109375 -0.09375 1.765625 -0.40625 C 1.429688 -0.71875 1.265625 -1.179688 1.265625 -1.796875 L 1.265625 -5.109375 L 0.375 -5.109375 L 0.375 -6.140625 L 1.265625 -6.140625 L 1.265625 -7.890625 L 2.640625 -7.890625 L 2.640625 -6.140625 L 4.53125 -6.140625 L 4.53125 -5.109375 L 2.640625 -5.109375 L 2.640625 -2.046875 C 2.640625 -1.734375 2.691406 -1.507812 2.796875 -1.375 C 2.910156 -1.25 3.085938 -1.1875 3.328125 -1.1875 C 3.578125 -1.1875 3.894531 -1.28125 4.28125 -1.46875 Z M 4.28125 -1.46875 "></path>
      </g>
    </g>
  </g>
  <g fill="#000000" fill-opacity="1">
    <g transform="translate(230.462357, 222.129374)">
      <g>
        <path d="M 4.84375 0 L 4.84375 -0.78125 C 4.382812 -0.21875 3.679688 0.0625 2.734375 0.0625 C 2.054688 0.0625 1.507812 -0.125 1.09375 -0.5 C 0.6875 -0.875 0.484375 -1.347656 0.484375 -1.921875 C 0.484375 -2.503906 0.695312 -2.96875 1.125 -3.3125 C 1.550781 -3.65625 2.144531 -3.832031 2.90625 -3.84375 L 4.84375 -3.84375 L 4.84375 -4.03125 C 4.84375 -4.4375 4.710938 -4.75 4.453125 -4.96875 C 4.191406 -5.195312 3.8125 -5.3125 3.3125 -5.3125 C 2.695312 -5.3125 2.066406 -5.097656 1.421875 -4.671875 L 0.859375 -5.625 C 1.347656 -5.914062 1.785156 -6.125 2.171875 -6.25 C 2.566406 -6.375 3.046875 -6.4375 3.609375 -6.4375 C 4.429688 -6.4375 5.066406 -6.238281 5.515625 -5.84375 C 5.960938 -5.445312 6.1875 -4.894531 6.1875 -4.1875 L 6.203125 0 Z M 3.03125 -1.03125 C 3.507812 -1.03125 3.921875 -1.144531 4.265625 -1.375 C 4.609375 -1.601562 4.800781 -1.894531 4.84375 -2.25 L 4.84375 -2.828125 L 3.109375 -2.828125 C 2.648438 -2.828125 2.3125 -2.757812 2.09375 -2.625 C 1.882812 -2.5 1.78125 -2.285156 1.78125 -1.984375 C 1.78125 -1.691406 1.890625 -1.457031 2.109375 -1.28125 C 2.335938 -1.113281 2.644531 -1.03125 3.03125 -1.03125 Z M 3.03125 -1.03125 "></path>
      </g>
    </g>
  </g>
  <g fill="#000000" fill-opacity="1">
    <g transform="translate(237.986378, 222.129374)">
      <g>
        <path d="M 2.453125 0 L 1.078125 0 L 1.078125 -8.90625 L 2.453125 -8.90625 Z M 2.453125 0 "></path>
      </g>
    </g>
  </g>
  <g fill="#000000" fill-opacity="1">
    <g transform="translate(242.018394, 222.129374)">
      <g></g>
    </g>
  </g>
  <g fill="#000000" fill-opacity="1">
    <g transform="translate(245.606403, 222.129374)">
      <g>
        <path d="M 3.859375 -8.453125 C 4.953125 -8.453125 5.929688 -8.164062 6.796875 -7.59375 L 6.21875 -6.34375 C 5.363281 -6.863281 4.539062 -7.125 3.75 -7.125 C 3.332031 -7.125 3 -7.046875 2.75 -6.890625 C 2.507812 -6.742188 2.390625 -6.53125 2.390625 -6.25 C 2.390625 -5.96875 2.5 -5.726562 2.71875 -5.53125 C 2.945312 -5.34375 3.226562 -5.203125 3.5625 -5.109375 C 3.894531 -5.015625 4.257812 -4.894531 4.65625 -4.75 C 5.050781 -4.613281 5.414062 -4.46875 5.75 -4.3125 C 6.082031 -4.15625 6.359375 -3.910156 6.578125 -3.578125 C 6.796875 -3.242188 6.90625 -2.84375 6.90625 -2.375 C 6.90625 -1.632812 6.609375 -1.046875 6.015625 -0.609375 C 5.429688 -0.171875 4.675781 0.046875 3.75 0.046875 C 3.101562 0.046875 2.476562 -0.0703125 1.875 -0.3125 C 1.28125 -0.550781 0.757812 -0.875 0.3125 -1.28125 L 0.921875 -2.515625 C 1.347656 -2.117188 1.8125 -1.8125 2.3125 -1.59375 C 2.820312 -1.382812 3.304688 -1.28125 3.765625 -1.28125 C 4.265625 -1.28125 4.648438 -1.367188 4.921875 -1.546875 C 5.203125 -1.734375 5.34375 -1.984375 5.34375 -2.296875 C 5.34375 -2.585938 5.226562 -2.832031 5 -3.03125 C 4.78125 -3.226562 4.5 -3.367188 4.15625 -3.453125 C 3.820312 -3.546875 3.457031 -3.660156 3.0625 -3.796875 C 2.675781 -3.929688 2.3125 -4.070312 1.96875 -4.21875 C 1.632812 -4.363281 1.351562 -4.597656 1.125 -4.921875 C 0.90625 -5.253906 0.796875 -5.65625 0.796875 -6.125 C 0.796875 -6.832031 1.078125 -7.394531 1.640625 -7.8125 C 2.203125 -8.238281 2.941406 -8.453125 3.859375 -8.453125 Z M 3.859375 -8.453125 "></path>
      </g>
    </g>
  </g>
  <g fill="#000000" fill-opacity="1">
    <g transform="translate(253.562426, 222.129374)">
      <g>
        <path d="M 4.828125 -6.4375 C 5.566406 -6.4375 6.144531 -6.21875 6.5625 -5.78125 C 6.988281 -5.34375 7.203125 -4.738281 7.203125 -3.96875 L 7.203125 0 L 5.8125 0 L 5.8125 -3.59375 C 5.8125 -4.070312 5.675781 -4.445312 5.40625 -4.71875 C 5.132812 -5 4.757812 -5.140625 4.28125 -5.140625 C 3.71875 -5.128906 3.269531 -4.9375 2.9375 -4.5625 C 2.613281 -4.195312 2.453125 -3.722656 2.453125 -3.140625 L 2.453125 0 L 1.078125 0 L 1.078125 -8.90625 L 2.453125 -8.90625 L 2.453125 -5.140625 C 2.898438 -6.003906 3.691406 -6.4375 4.828125 -6.4375 Z M 4.828125 -6.4375 "></path>
      </g>
    </g>
  </g>
  <g fill="#000000" fill-opacity="1">
    <g transform="translate(262.082443, 222.129374)">
      <g>
        <path d="M 1.125 -8.8125 C 1.28125 -8.96875 1.472656 -9.046875 1.703125 -9.046875 C 1.929688 -9.046875 2.125 -8.96875 2.28125 -8.8125 C 2.4375 -8.65625 2.515625 -8.453125 2.515625 -8.203125 C 2.515625 -7.960938 2.4375 -7.765625 2.28125 -7.609375 C 2.125 -7.453125 1.929688 -7.375 1.703125 -7.375 C 1.472656 -7.375 1.28125 -7.453125 1.125 -7.609375 C 0.976562 -7.765625 0.90625 -7.960938 0.90625 -8.203125 C 0.90625 -8.453125 0.976562 -8.65625 1.125 -8.8125 Z M 2.390625 0 L 1.015625 0 L 1.015625 -6.390625 L 2.390625 -6.390625 Z M 2.390625 0 "></path>
      </g>
    </g>
  </g>
  <g fill="#000000" fill-opacity="1">
    <g transform="translate(265.982452, 222.129374)">
      <g>
        <path d="M 3.640625 -6.4375 C 4.742188 -6.4375 5.539062 -6.101562 6.03125 -5.4375 C 6.519531 -4.78125 6.722656 -3.851562 6.640625 -2.65625 L 1.8125 -2.65625 C 1.925781 -2.164062 2.15625 -1.773438 2.5 -1.484375 C 2.851562 -1.203125 3.285156 -1.0625 3.796875 -1.0625 C 4.515625 -1.0625 5.113281 -1.3125 5.59375 -1.8125 L 6.328125 -1.03125 C 5.671875 -0.3125 4.789062 0.046875 3.6875 0.046875 C 2.695312 0.046875 1.90625 -0.25 1.3125 -0.84375 C 0.71875 -1.4375 0.421875 -2.210938 0.421875 -3.171875 C 0.421875 -4.140625 0.71875 -4.921875 1.3125 -5.515625 C 1.914062 -6.117188 2.691406 -6.425781 3.640625 -6.4375 Z M 1.78125 -3.671875 L 5.4375 -3.671875 C 5.414062 -4.179688 5.242188 -4.582031 4.921875 -4.875 C 4.597656 -5.175781 4.175781 -5.328125 3.65625 -5.328125 C 3.15625 -5.328125 2.738281 -5.175781 2.40625 -4.875 C 2.070312 -4.582031 1.863281 -4.179688 1.78125 -3.671875 Z M 1.78125 -3.671875 "></path>
      </g>
    </g>
  </g>
  <g fill="#000000" fill-opacity="1">
    <g transform="translate(273.530471, 222.129374)">
      <g>
        <path d="M 2.453125 0 L 1.078125 0 L 1.078125 -8.90625 L 2.453125 -8.90625 Z M 2.453125 0 "></path>
      </g>
    </g>
  </g>
  <g fill="#000000" fill-opacity="1">
    <g transform="translate(277.562488, 222.129374)">
      <g>
        <path d="M 7.109375 -8.90625 L 7.109375 0 L 5.71875 0 L 5.71875 -1.09375 C 5.25 -0.320312 4.503906 0.0625 3.484375 0.0625 C 2.566406 0.0625 1.828125 -0.238281 1.265625 -0.84375 C 0.703125 -1.445312 0.421875 -2.238281 0.421875 -3.21875 C 0.421875 -4.175781 0.695312 -4.953125 1.25 -5.546875 C 1.8125 -6.140625 2.546875 -6.4375 3.453125 -6.4375 C 4.472656 -6.4375 5.226562 -6.050781 5.71875 -5.28125 L 5.71875 -8.90625 Z M 2.359375 -1.671875 C 2.722656 -1.285156 3.191406 -1.09375 3.765625 -1.09375 C 4.335938 -1.09375 4.804688 -1.285156 5.171875 -1.671875 C 5.535156 -2.054688 5.71875 -2.554688 5.71875 -3.171875 C 5.71875 -3.785156 5.535156 -4.285156 5.171875 -4.671875 C 4.804688 -5.066406 4.335938 -5.265625 3.765625 -5.265625 C 3.191406 -5.265625 2.722656 -5.066406 2.359375 -4.671875 C 1.992188 -4.285156 1.804688 -3.785156 1.796875 -3.171875 C 1.804688 -2.554688 1.992188 -2.054688 2.359375 -1.671875 Z M 2.359375 -1.671875 "></path>
      </g>
    </g>
  </g>
</svg>
